<svg xmlns="http://www.w3.org/2000/svg" width="640" height="420" font-family="sans-serif">
<rect width="640" height="420" fill="white"/>
<text x="320.0" y="24" text-anchor="middle" font-size="16" font-weight="bold">Speedup vs numero de threads</text>
<line x1="70" y1="40" x2="70" y2="360" stroke="black"/>
<line x1="70" y1="360" x2="610" y2="360" stroke="black"/>
<line x1="66" y1="323.6363636363636" x2="70" y2="323.6363636363636" stroke="black"/>
<text x="62" y="327.6363636363636" text-anchor="end" font-size="11">1x</text>
<line x1="70" y1="323.6363636363636" x2="610" y2="323.6363636363636" stroke="#eee"/>
<line x1="66" y1="287.27272727272725" x2="70" y2="287.27272727272725" stroke="black"/>
<text x="62" y="291.27272727272725" text-anchor="end" font-size="11">2x</text>
<line x1="70" y1="287.27272727272725" x2="610" y2="287.27272727272725" stroke="#eee"/>
<line x1="66" y1="250.90909090909093" x2="70" y2="250.90909090909093" stroke="black"/>
<text x="62" y="254.90909090909093" text-anchor="end" font-size="11">3x</text>
<line x1="70" y1="250.90909090909093" x2="610" y2="250.90909090909093" stroke="#eee"/>
<line x1="66" y1="214.54545454545456" x2="70" y2="214.54545454545456" stroke="black"/>
<text x="62" y="218.54545454545456" text-anchor="end" font-size="11">4x</text>
<line x1="70" y1="214.54545454545456" x2="610" y2="214.54545454545456" stroke="#eee"/>
<line x1="66" y1="178.1818181818182" x2="70" y2="178.1818181818182" stroke="black"/>
<text x="62" y="182.1818181818182" text-anchor="end" font-size="11">5x</text>
<line x1="70" y1="178.1818181818182" x2="610" y2="178.1818181818182" stroke="#eee"/>
<line x1="66" y1="141.81818181818184" x2="70" y2="141.81818181818184" stroke="black"/>
<text x="62" y="145.81818181818184" text-anchor="end" font-size="11">6x</text>
<line x1="70" y1="141.81818181818184" x2="610" y2="141.81818181818184" stroke="#eee"/>
<line x1="66" y1="105.45454545454547" x2="70" y2="105.45454545454547" stroke="black"/>
<text x="62" y="109.45454545454547" text-anchor="end" font-size="11">7x</text>
<line x1="70" y1="105.45454545454547" x2="610" y2="105.45454545454547" stroke="#eee"/>
<line x1="66" y1="69.09090909090912" x2="70" y2="69.09090909090912" stroke="black"/>
<text x="62" y="73.09090909090912" text-anchor="end" font-size="11">8x</text>
<line x1="70" y1="69.09090909090912" x2="610" y2="69.09090909090912" stroke="#eee"/>
<line x1="137.5" y1="360" x2="137.5" y2="364" stroke="black"/>
<text x="137.5" y="380" text-anchor="middle" font-size="11">1</text>
<line x1="205.0" y1="360" x2="205.0" y2="364" stroke="black"/>
<text x="205.0" y="380" text-anchor="middle" font-size="11">2</text>
<line x1="340.0" y1="360" x2="340.0" y2="364" stroke="black"/>
<text x="340.0" y="380" text-anchor="middle" font-size="11">4</text>
<line x1="610.0" y1="360" x2="610.0" y2="364" stroke="black"/>
<text x="610.0" y="380" text-anchor="middle" font-size="11">8</text>
<text x="340.0" y="405" text-anchor="middle" font-size="12">threads</text>
<text x="18" y="200.0" text-anchor="middle" font-size="12" transform="rotate(-90 18 200.0)">speedup</text>
<line x1="137.5" y1="323.6363636363636" x2="610.0" y2="69.09090909090912" stroke="#bbb" stroke-dasharray="6 4"/>
<text x="610.0" y="63.09090909090912" text-anchor="end" font-size="11" fill="#888">ideal (linear)</text>
<polyline points="137.5,323.6 205.0,291.5 340.0,252.7 610.0,226.0" fill="none" stroke="#1f77b4" stroke-width="2.5"/>
<circle cx="137.5" cy="323.6" r="4" fill="#1f77b4"/>
<text x="137.5" y="313.6" text-anchor="middle" font-size="11" fill="#1f77b4">1.00x</text>
<circle cx="205.0" cy="291.5" r="4" fill="#1f77b4"/>
<text x="205.0" y="281.5" text-anchor="middle" font-size="11" fill="#1f77b4">1.88x</text>
<circle cx="340.0" cy="252.7" r="4" fill="#1f77b4"/>
<text x="340.0" y="242.7" text-anchor="middle" font-size="11" fill="#1f77b4">2.95x</text>
<circle cx="610.0" cy="226.0" r="4" fill="#1f77b4"/>
<text x="610.0" y="216.0" text-anchor="middle" font-size="11" fill="#1f77b4">3.68x</text>
</svg>